<svg width="66" height="26" viewBox="0 0 66 26" fill="none" xmlns="http://www.w3.org/2000/svg">
<rect width="66" height="26" rx="13" fill="var(--kimi-logo-sub-bg)"/>
<path d="M14.249 6C14.4112 6 14.543 6.13176 14.543 6.29395V12.5068C14.543 12.6707 14.6927 12.7624 14.7939 12.6602L21.3184 6.08691C21.3735 6.03145 21.4482 6.00002 21.5264 6H24.1758C24.4337 6 24.5671 6.30901 24.3896 6.49609L18.6973 12.4912C18.6114 12.5787 18.6238 12.7499 18.7207 12.8164L23.3818 16.2842C23.8309 16.595 24.4234 16.8114 24.9561 16.9258C25.097 16.9561 25.2021 17.0785 25.2021 17.2227V19.6445C25.2021 19.8195 25.0497 19.9567 24.877 19.9287C23.9586 19.7797 22.9556 19.4226 22.168 18.8779L16.7832 14.8066C16.7293 14.7697 16.6617 14.7779 16.6133 14.8271L14.5996 16.8789C14.5635 16.9158 14.543 16.9724 14.543 17.0312V19.7061C14.543 19.8682 14.4112 20 14.249 20H12.2939C12.1318 20 12 19.8682 12 19.7061V6.29395C12 6.13176 12.1318 6 12.2939 6H14.249ZM29.832 6C29.9942 6 30.126 6.13176 30.126 6.29395V19.7061C30.126 19.8682 29.9942 20 29.832 20H27.9443C27.7822 20 27.6504 19.8682 27.6504 19.7061V6.29395C27.6504 6.13176 27.7822 6 27.9443 6H29.832ZM37.5957 6C37.7309 6 37.8466 6.09238 37.8789 6.22363L40.6709 17.6426C40.7162 17.8298 40.9359 17.8298 40.9824 17.6426L43.7725 6.22363C43.8047 6.09228 43.9233 6 44.0586 6H48.7832C48.9453 6.0001 49.0771 6.13183 49.0771 6.29395V19.7061C49.0771 19.8682 48.9453 19.9999 48.7832 20H46.6865C46.5244 20 46.3926 19.8682 46.3926 19.7061V8.43066C46.3923 8.20561 46.1276 8.15935 46.0742 8.37598L43.2891 19.7764C43.2569 19.9077 43.1382 20 43.0029 20H38.6484C38.5133 19.9999 38.3955 19.9076 38.3633 19.7764L35.5762 8.37402C35.5225 8.15778 35.2579 8.20456 35.2578 8.42969C35.2578 8.42969 35.2578 17.9138 35.2578 19.71C35.2578 19.872 35.1269 19.9998 34.9648 20H32.8682C32.706 20 32.5742 19.8682 32.5742 19.7061V6.29395C32.5742 6.13191 32.7042 6.00023 32.8662 6H37.5957ZM53.7061 6C53.8682 6 54 6.13176 54 6.29395V19.7061C54 19.8682 53.8682 20 53.7061 20H51.8184C51.6562 20 51.5244 19.8682 51.5244 19.7061V6.29395C51.5244 6.13176 51.6562 6 51.8184 6H53.7061Z" fill="var(--kimi-logo-sub-fg)"/>
</svg>
